<?xml version="1.0" standalone="no"?>
<!DOCTYPE svg PUBLIC "-//W3C//DTD SVG 20010904//EN"
 "http://www.w3.org/TR/2001/REC-SVG-20010904/DTD/svg10.dtd">
<svg version="1.0" xmlns="http://www.w3.org/2000/svg"
 width="302.000000pt" height="302.000000pt" viewBox="0 0 302.000000 302.000000"
 preserveAspectRatio="xMidYMid meet">
<metadata>
Created by potrace 1.11, written by Peter Selinger 2001-2013
</metadata>
<g transform="translate(0.000000,302.000000) scale(0.100000,-0.100000)"
fill="#000000" stroke="none">
<path d="M1000 3004 c-59 -25 -70 -61 -70 -231 0 -115 -3 -153 -12 -154 -7 0
-22 -2 -33 -5 -25 -5 -66 -13 -104 -18 -17 -3 -47 -9 -68 -15 -21 -5 -70 -15
-109 -21 -89 -14 -130 -39 -154 -92 -21 -47 -20 -50 14 -213 20 -94 23 -122
13 -131 -10 -9 -188 -115 -296 -176 -105 -60 -139 -87 -161 -132 -30 -63 -23
-118 26 -196 20 -32 134 -225 174 -295 19 -33 380 -643 554 -937 61 -103 118
-200 126 -215 70 -130 113 -167 198 -167 52 1 66 6 162 64 58 35 119 71 135
80 17 10 130 76 252 149 226 133 244 141 395 166 18 3 56 10 83 15 28 5 61 12
75 14 14 3 75 15 135 27 92 18 150 22 351 24 214 2 244 4 272 21 64 37 61 -5
61 934 l0 855 -67 64 c-37 34 -159 152 -272 261 -113 109 -238 229 -278 266
l-72 69 -650 1 c-499 0 -657 -3 -680 -12z"/>
</g>
</svg>
