<svg xmlns="http://www.w3.org/2000/svg" viewBox="0 0 48 48" fill="none" role="img" aria-labelledby="title">
  <title id="title">Kindred Innovia</title>
  <rect x="4" y="4" width="40" height="40" rx="20" fill="#35a9d51a" stroke="#35a9d559" stroke-width="1.5"/>
  <path d="M24 33.5C18.2 29.5 14 26.1 14 21.6C14 18.8 16.1 16.6 18.8 16.6C20.9 16.6 22.5 17.8 24 19.6C25.5 17.8 27.1 16.6 29.2 16.6C31.9 16.6 34 18.8 34 21.6C34 26.1 29.8 29.5 24 33.5Z" fill="#35a9d533" stroke="#35a9d5" stroke-width="2.2" stroke-linecap="round" stroke-linejoin="round"/>
  <path d="M24 31.8V22.5M24 26.7C21.4 26.2 19.6 24.8 18.6 22.6M24 26.7C26.6 26.2 28.4 24.8 29.4 22.6" stroke="#78cbea" stroke-width="2" stroke-linecap="round" stroke-linejoin="round"/>
  <circle cx="24" cy="22.4" r="1.8" fill="#147da4"/>
  <circle cx="18.6" cy="22.6" r="1.3" fill="#78cbea"/>
  <circle cx="29.4" cy="22.6" r="1.3" fill="#78cbea"/>
</svg>
